<?xml version="1.0" standalone="no"?>
<!DOCTYPE svg PUBLIC "-//W3C//DTD SVG 20010904//EN"
 "http://www.w3.org/TR/2001/REC-SVG-20010904/DTD/svg10.dtd">
<svg version="1.0" xmlns="http://www.w3.org/2000/svg"
 width="595.000000pt" height="248.000000pt" viewBox="0 0 595.000000 248.000000"
 preserveAspectRatio="xMidYMid meet">
<metadata>
Created by potrace 1.16, written by Peter Selinger 2001-2019
</metadata>
<g transform="translate(0.000000,248.000000) scale(0.100000,-0.100000)"
fill="#000000" stroke="none">
<path d="M4857 2228 c-34 -26 -51 -118 -22 -118 9 0 36 -19 61 -42 73 -67 145
-238 184 -438 9 -49 15 -57 49 -77 22 -13 62 -32 90 -43 l51 -20 0 31 c0 100
-75 364 -138 483 -44 85 -137 187 -196 215 -49 24 -57 25 -79 9z"/>
<path d="M4284 2145 c-14 -14 -31 -39 -38 -57 -13 -31 -13 -31 58 -102 57 -57
81 -90 118 -166 156 -318 173 -775 40 -1074 l-26 -58 22 -42 c12 -22 33 -54
46 -71 l23 -29 32 49 c88 140 130 323 138 590 4 163 2 207 -15 310 -48 280
-172 536 -310 642 -24 18 -48 33 -53 33 -6 0 -21 -11 -35 -25z"/>
<path d="M290 1711 l0 -371 183 0 c178 0 185 1 236 26 56 28 101 80 123 142 9
25 13 91 13 202 0 150 -3 170 -23 216 -29 63 -62 96 -127 125 -44 20 -72 23
-227 27 l-178 5 0 -372z m293 188 c20 -5 44 -20 52 -33 19 -29 30 -154 20
-241 -10 -93 -31 -115 -115 -115 l-60 0 0 200 0 200 33 0 c17 0 49 -5 70 -11z"/>
<path d="M960 1710 l0 -370 255 0 255 0 0 85 0 85 -160 0 -160 0 0 55 0 55
135 0 135 0 0 85 0 85 -135 0 -135 0 0 60 0 60 160 0 160 0 0 85 0 85 -255 0
-255 0 0 -370z"/>
<path d="M1510 2073 c0 -5 53 -170 118 -368 l118 -360 75 -3 75 -3 117 358
c65 197 117 364 117 371 0 9 -26 12 -95 12 l-94 0 -25 -82 c-14 -46 -41 -135
-59 -198 l-34 -115 -31 100 c-17 55 -43 143 -59 195 l-29 95 -97 3 c-53 1 -97
-1 -97 -5z"/>
<path d="M2359 2071 c-80 -26 -154 -96 -174 -165 -18 -60 -21 -325 -4 -391 14
-54 75 -127 133 -158 33 -18 58 -22 131 -22 77 0 98 4 139 25 80 41 80 50 9
121 l-61 62 -27 -22 c-36 -28 -77 -27 -112 3 l-28 24 0 157 0 157 28 24 c35
30 76 31 112 3 l27 -22 60 61 c40 39 59 65 55 75 -3 9 -27 28 -53 43 -39 23
-61 28 -128 31 -45 1 -93 -1 -107 -6z"/>
<path d="M2880 2071 c-52 -17 -89 -42 -128 -86 -55 -63 -65 -111 -60 -310 4
-175 10 -197 72 -263 57 -61 99 -77 206 -77 85 0 100 3 141 27 112 66 139 133
139 343 0 168 -14 227 -67 286 -55 61 -104 82 -198 85 -44 2 -91 0 -105 -5z
m132 -172 c35 -19 48 -70 48 -194 0 -124 -13 -175 -48 -194 -33 -18 -69 -13
-99 13 l-28 24 0 157 0 157 28 24 c30 26 66 31 99 13z"/>
<path d="M545 1165 c-5 -2 -26 -6 -46 -9 -99 -17 -179 -117 -179 -225 0 -143
64 -207 226 -226 98 -12 124 -27 124 -72 0 -35 -36 -53 -111 -53 -49 0 -77 6
-112 23 l-46 24 -61 -62 -62 -62 39 -32 c55 -46 129 -66 248 -65 82 0 109 4
150 23 99 44 145 113 144 216 0 147 -55 201 -231 230 -106 17 -136 37 -116 80
22 50 130 59 188 17 l27 -20 62 62 62 62 -23 21 c-13 11 -37 28 -53 36 -51 26
-191 45 -230 32z"/>
<path d="M1817 1156 c-68 -19 -126 -64 -161 -127 -31 -53 -31 -56 -34 -221 -4
-203 7 -254 69 -318 50 -51 113 -80 189 -87 72 -7 159 18 203 57 l32 29 -65
65 -64 66 -22 -21 c-16 -15 -32 -19 -64 -17 -68 5 -84 34 -88 163 -5 135 3
191 33 221 30 30 82 32 117 5 l25 -20 63 64 64 64 -20 22 c-48 54 -184 81
-277 55z"/>
<path d="M2348 1157 c-92 -26 -164 -96 -187 -182 -17 -61 -14 -331 4 -391 20
-67 64 -117 133 -151 101 -50 260 -34 322 32 l24 25 -64 65 -64 65 -22 -21
c-33 -31 -100 -23 -128 14 -19 26 -21 42 -21 172 0 130 2 146 21 172 27 37 85
43 124 14 l27 -19 63 63 c62 63 63 65 46 84 -50 56 -186 84 -278 58z"/>
<path d="M2878 1157 c-93 -27 -158 -89 -184 -174 -20 -65 -19 -333 1 -399 30
-100 121 -170 238 -181 122 -11 228 41 283 139 l29 53 0 185 c0 208 -8 242
-76 309 -68 67 -191 96 -291 68z m141 -184 c29 -24 41 -78 41 -188 0 -160 -25
-209 -103 -203 -64 5 -81 36 -85 163 -5 135 3 191 33 221 29 29 83 32 114 7z"/>
<path d="M5120 1160 c0 -66 -25 -265 -45 -351 -69 -313 -232 -491 -390 -425
-25 11 -33 11 -29 2 9 -23 113 -84 164 -96 44 -11 58 -9 122 10 81 24 99 38
165 122 93 121 162 304 181 483 8 70 7 83 -9 105 -32 46 -159 165 -159 150z"/>
<path d="M1032 796 c-73 -200 -132 -369 -132 -375 0 -7 32 -11 98 -11 l98 0
18 55 17 56 111 -3 111 -3 15 -52 15 -53 103 0 104 0 -23 63 c-13 34 -75 203
-137 375 l-113 312 -76 0 -77 0 -132 -364z"/>
</g>
</svg>
